# xmcd CD database file
#
# Track frame offsets:
#	150
#	23252
#	45840
#	78565
#	106709
#	132847
#	164308
#	210794
#
# Disc length: 3099 seconds
#
# Revision: 0
# Processed by: cddbd v1.5PL3 Copyright (c) Steve Scherf et al.
# Submitted via: CDex 1.51
#
DISCID=4a0c1908
DTITLE=Al Gromer Khan - Beautiful Marva
DYEAR=1993
DGENRE=New Age
TTITLE0=Door Of The Minbar
TTITLE1=Tiefe Nacht Der Seele
TTITLE2=The King's Chamber
TTITLE3=Isfahan Green
TTITLE4=Hearts Of Space
TTITLE5=Beautiful Marva
TTITLE6=Silent Voice
TTITLE7=Minbar Recall
EXTD=YEAR: 1993
EXTT0=
EXTT1=
EXTT2=
EXTT3=
EXTT4=
EXTT5=
EXTT6=
EXTT7=
PLAYORDER=
